<svg xmlns="http://www.w3.org/2000/svg" xmlns:xlink="http://www.w3.org/1999/xlink" width="255" zoomAndPan="magnify" viewBox="0 0 191.25 48" height="64" preserveAspectRatio="xMidYMid meet" version="1.0"><defs><g/><clipPath id="id1"><path d="M 127 1 L 171.957031 1 L 171.957031 46.21875 L 127 46.21875 Z M 127 1 " clip-rule="nonzero"/></clipPath></defs><path fill="#ffffff" d="M 155.804688 14.546875 L 155.804688 25.492188 L 154.195312 25.492188 L 154.195312 17.066406 C 154.195312 16.550781 153.777344 16.132812 153.261719 16.132812 C 152.746094 16.132812 152.328125 16.550781 152.328125 17.066406 L 152.328125 25.492188 L 150.699219 25.492188 L 150.699219 19.195312 C 150.699219 18.679688 150.28125 18.261719 149.765625 18.261719 C 149.25 18.261719 148.832031 18.679688 148.832031 19.195312 L 148.832031 25.492188 L 147.207031 25.492188 L 147.207031 21.324219 C 147.207031 20.808594 146.789062 20.390625 146.273438 20.390625 C 145.757812 20.390625 145.339844 20.808594 145.339844 21.324219 L 145.339844 25.492188 L 143.726562 25.492188 L 143.726562 14.546875 C 143.726562 11.214844 146.4375 8.507812 149.765625 8.507812 C 153.097656 8.507812 155.804688 11.214844 155.804688 14.546875 Z M 149.765625 34.984375 C 146.4375 34.984375 143.726562 32.277344 143.726562 28.949219 L 143.726562 27.359375 L 155.804688 27.359375 L 155.804688 28.949219 C 155.804688 32.277344 153.097656 34.984375 149.765625 34.984375 Z M 141.859375 14.546875 L 141.859375 28.949219 C 141.859375 33.308594 145.40625 36.855469 149.765625 36.855469 C 154.125 36.855469 157.671875 33.308594 157.671875 28.949219 L 157.671875 14.546875 C 157.671875 10.1875 154.125 6.640625 149.765625 6.640625 C 145.40625 6.640625 141.859375 10.1875 141.859375 14.546875 " fill-opacity="1" fill-rule="nonzero"/><g clip-path="url(#id1)"><path fill="#ffffff" d="M 162.089844 5.5625 C 155.761719 1.332031 147.875 0.667969 140.449219 3.738281 C 137.980469 4.761719 135.765625 6.238281 133.871094 8.132812 C 131.980469 10.027344 130.5 12.238281 129.480469 14.710938 C 126.410156 22.136719 127.074219 30.023438 131.304688 36.347656 C 135.4375 42.53125 142.339844 46.21875 149.765625 46.21875 C 150.28125 46.21875 150.699219 45.800781 150.699219 45.285156 L 150.699219 41.15625 C 150.699219 41.113281 150.695312 41.074219 150.691406 41.03125 C 152.007812 40.933594 153.285156 40.625 154.503906 40.109375 C 155.953125 39.496094 157.253906 38.621094 158.371094 37.503906 C 159.484375 36.386719 160.363281 35.085938 160.976562 33.636719 C 161.609375 32.136719 161.933594 30.539062 161.933594 28.902344 L 161.933594 26.796875 C 161.933594 26.28125 161.515625 25.863281 161 25.863281 C 160.484375 25.863281 160.066406 26.28125 160.066406 26.796875 L 160.066406 28.902344 C 160.066406 30.289062 159.792969 31.640625 159.253906 32.910156 C 158.734375 34.136719 157.992188 35.238281 157.050781 36.183594 C 156.105469 37.128906 155.003906 37.871094 153.777344 38.390625 C 152.503906 38.925781 151.15625 39.199219 149.765625 39.199219 C 148.378906 39.199219 147.027344 38.925781 145.757812 38.390625 C 144.53125 37.871094 143.429688 37.128906 142.484375 36.183594 C 141.539062 35.238281 140.796875 34.136719 140.277344 32.910156 C 139.742188 31.640625 139.46875 30.289062 139.46875 28.902344 L 139.46875 26.796875 C 139.46875 26.28125 139.050781 25.863281 138.535156 25.863281 C 138.019531 25.863281 137.597656 26.28125 137.597656 26.796875 L 137.597656 28.902344 C 137.597656 30.539062 137.921875 32.136719 138.558594 33.636719 C 139.171875 35.085938 140.046875 36.386719 141.164062 37.503906 C 142.277344 38.621094 143.578125 39.496094 145.027344 40.109375 C 146.25 40.625 147.527344 40.933594 148.839844 41.03125 C 148.835938 41.074219 148.832031 41.113281 148.832031 41.15625 L 148.832031 44.332031 C 142.390625 44.039062 136.46875 40.710938 132.855469 35.308594 C 128.980469 29.511719 128.378906 22.261719 131.207031 15.421875 C 133.058594 10.945312 136.6875 7.316406 141.164062 5.464844 C 148.003906 2.636719 155.25 3.238281 161.050781 7.117188 C 166.710938 10.902344 170.09375 17.222656 170.09375 24.027344 C 170.09375 33.65625 163.253906 42.035156 153.832031 43.945312 C 153.328125 44.046875 153 44.542969 153.101562 45.046875 C 153.203125 45.554688 153.699219 45.878906 154.203125 45.777344 C 159.148438 44.773438 163.648438 42.066406 166.882812 38.15625 C 168.492188 36.210938 169.746094 34.027344 170.609375 31.664062 C 171.507812 29.222656 171.960938 26.652344 171.960938 24.027344 C 171.960938 16.597656 168.269531 9.695312 162.089844 5.5625 " fill-opacity="1" fill-rule="nonzero"/></g><g fill="#ffffff" fill-opacity="1"><g transform="translate(22.691858, 39.584161)"><g><path d="M 6.183594 0.277344 C 9.679688 0.277344 11.925781 -1.050781 11.910156 -3.007812 C 11.910156 -4.714844 10.546875 -5.582031 7.367188 -5.898438 L 5.621094 -6.09375 C 4.398438 -6.210938 3.875 -6.421875 3.886719 -6.777344 C 3.898438 -7.277344 4.871094 -7.589844 6.226562 -7.605469 C 7.667969 -7.617188 9.21875 -7.195312 10.257812 -6.515625 L 11.203125 -8.496094 C 10.019531 -9.246094 8.15625 -9.691406 6.199219 -9.691406 C 2.808594 -9.691406 0.523438 -8.550781 0.511719 -6.527344 C 0.511719 -4.859375 1.800781 -4.03125 4.792969 -3.714844 L 6.527344 -3.519531 C 7.945312 -3.375 8.550781 -3.113281 8.550781 -2.71875 C 8.550781 -2.207031 7.707031 -1.902344 6.371094 -1.902344 C 4.558594 -1.902344 2.519531 -2.535156 1.40625 -3.402344 L 0.261719 -1.339844 C 1.523438 -0.378906 3.941406 0.277344 6.183594 0.277344 Z M 6.183594 0.277344 "/></g></g></g><g fill="#ffffff" fill-opacity="1"><g transform="translate(34.862185, 39.584161)"><g><path d="M 0.65625 0 L 4.125 0 L 4.125 -2.902344 L 8.273438 -2.902344 C 10.9375 -2.902344 12.421875 -4.042969 12.421875 -6.105469 C 12.421875 -8.222656 10.953125 -9.402344 8.300781 -9.402344 L 0.65625 -9.402344 Z M 4.125 -4.832031 L 4.125 -7.472656 L 7.132812 -7.472656 C 8.300781 -7.472656 8.941406 -7 8.941406 -6.160156 C 8.941406 -5.304688 8.300781 -4.832031 7.132812 -4.832031 Z M 4.125 -4.832031 "/></g></g></g><g fill="#ffffff" fill-opacity="1"><g transform="translate(47.531406, 39.584161)"><g><path d="M 0.65625 0 L 10.730469 0 L 10.730469 -2.128906 L 4.019531 -2.128906 L 4.019531 -3.875 L 10.074219 -3.875 L 10.074219 -5.699219 L 4.019531 -5.699219 L 4.019531 -7.277344 L 10.597656 -7.277344 L 10.597656 -9.402344 L 0.65625 -9.402344 Z M 0.65625 0 "/></g></g></g><g fill="#ffffff" fill-opacity="1"><g transform="translate(58.52015, 39.584161)"><g><path d="M 0.65625 0 L 10.730469 0 L 10.730469 -2.128906 L 4.019531 -2.128906 L 4.019531 -3.875 L 10.074219 -3.875 L 10.074219 -5.699219 L 4.019531 -5.699219 L 4.019531 -7.277344 L 10.597656 -7.277344 L 10.597656 -9.402344 L 0.65625 -9.402344 Z M 0.65625 0 "/></g></g></g><g fill="#ffffff" fill-opacity="1"><g transform="translate(69.508894, 39.584161)"><g><path d="M 7.289062 0.222656 C 10.769531 0.222656 13.277344 -1.234375 13.777344 -3.546875 L 10.570312 -4.109375 C 10.308594 -2.941406 9.0625 -2.207031 7.378906 -2.207031 C 5.253906 -2.207031 3.898438 -3.179688 3.886719 -4.703125 C 3.886719 -6.238281 5.09375 -7.195312 6.988281 -7.195312 C 8.324219 -7.195312 9.390625 -6.578125 9.71875 -5.609375 L 12.871094 -6.25 C 12.238281 -8.324219 9.914062 -9.640625 6.894531 -9.640625 C 2.929688 -9.640625 0.421875 -7.722656 0.421875 -4.703125 C 0.421875 -1.589844 3.085938 0.222656 7.289062 0.222656 Z M 7.289062 0.222656 "/></g></g></g><g fill="#ffffff" fill-opacity="1"><g transform="translate(83.477857, 39.584161)"><g><path d="M 0.65625 0 L 4.125 0 L 4.125 -3.742188 L 9.257812 -3.742188 L 9.257812 0 L 12.738281 0 L 12.738281 -9.402344 L 9.257812 -9.402344 L 9.257812 -6.082031 L 4.125 -6.082031 L 4.125 -9.402344 L 0.65625 -9.402344 Z M 0.65625 0 "/></g></g></g><g fill="#ffffff" fill-opacity="1"><g transform="translate(96.862839, 39.584161)"><g/></g></g><g fill="#ffffff" fill-opacity="1"><g transform="translate(26.958138, 24.431213)"><g><path d="M 7.683594 0.234375 C 11.351562 0.234375 13.996094 -1.300781 14.519531 -3.738281 L 11.144531 -4.332031 C 10.867188 -3.101562 9.550781 -2.324219 7.78125 -2.324219 C 5.539062 -2.324219 4.113281 -3.351562 4.097656 -4.957031 C 4.097656 -6.574219 5.371094 -7.585938 7.363281 -7.585938 C 8.777344 -7.585938 9.898438 -6.933594 10.242188 -5.910156 L 13.566406 -6.589844 C 12.902344 -8.777344 10.453125 -10.160156 7.265625 -10.160156 C 3.085938 -10.160156 0.441406 -8.140625 0.441406 -4.957031 C 0.441406 -1.675781 3.253906 0.234375 7.683594 0.234375 Z M 7.683594 0.234375 "/></g></g></g><g fill="#ffffff" fill-opacity="1"><g transform="translate(46.122941, 24.431213)"><g><path d="M 0.691406 0 L 4.347656 0 L 4.347656 -3.945312 L 9.757812 -3.945312 L 9.757812 0 L 13.425781 0 L 13.425781 -9.910156 L 9.757812 -9.910156 L 9.757812 -6.410156 L 4.347656 -6.410156 L 4.347656 -9.910156 L 0.691406 -9.910156 Z M 0.691406 0 "/></g></g></g><g fill="#ffffff" fill-opacity="1"><g transform="translate(64.679023, 24.431213)"><g><path d="M 0.691406 0 L 11.308594 0 L 11.308594 -2.242188 L 4.234375 -2.242188 L 4.234375 -4.082031 L 10.617188 -4.082031 L 10.617188 -6.007812 L 4.234375 -6.007812 L 4.234375 -7.667969 L 11.171875 -7.667969 L 11.171875 -9.910156 L 0.691406 -9.910156 Z M 0.691406 0 "/></g></g></g><g fill="#ffffff" fill-opacity="1"><g transform="translate(80.703367, 24.431213)"><g><path d="M 7.683594 0.234375 C 11.351562 0.234375 13.996094 -1.300781 14.519531 -3.738281 L 11.144531 -4.332031 C 10.867188 -3.101562 9.550781 -2.324219 7.78125 -2.324219 C 5.539062 -2.324219 4.113281 -3.351562 4.097656 -4.957031 C 4.097656 -6.574219 5.371094 -7.585938 7.363281 -7.585938 C 8.777344 -7.585938 9.898438 -6.933594 10.242188 -5.910156 L 13.566406 -6.589844 C 12.902344 -8.777344 10.453125 -10.160156 7.265625 -10.160156 C 3.085938 -10.160156 0.441406 -8.140625 0.441406 -4.957031 C 0.441406 -1.675781 3.253906 0.234375 7.683594 0.234375 Z M 7.683594 0.234375 "/></g></g></g><g fill="#ffffff" fill-opacity="1"><g transform="translate(99.868168, 24.431213)"><g><path d="M 0.691406 0 L 4.347656 0 L 4.347656 -2.5625 L 5.828125 -3.808594 L 8.734375 0 L 13.164062 0 L 8.359375 -5.910156 L 13.136719 -9.910156 L 8.570312 -9.910156 L 4.375 -6.367188 L 4.347656 -6.382812 L 4.347656 -9.910156 L 0.691406 -9.910156 Z M 0.691406 0 "/></g></g></g><path stroke-linecap="butt" transform="matrix(0.634705, 0, 0, 0.634705, 18.626196, 27.790638)" fill="none" stroke-linejoin="miter" d="M 127.782598 19.999423 L 133.764707 19.999423 L 134.946358 17.291473 L 142.72556 17.291473 L 143.925675 19.999423 L 149.895474 19.999423 L 142.288596 4.354856 L 135.598727 4.354856 Z M 136.041847 14.078859 L 138.842113 7.875191 L 138.885194 7.875191 L 141.636226 14.078859 Z M 151.003272 19.999423 L 156.745358 19.999423 L 156.745358 4.354856 L 151.003272 4.354856 Z M 151.003272 19.999423 " stroke="#ffffff" stroke-width="1.502346" stroke-opacity="1" stroke-miterlimit="4"/></svg>