<svg xmlns="http://www.w3.org/2000/svg" xmlns:xlink="http://www.w3.org/1999/xlink" width="255" zoomAndPan="magnify" viewBox="0 0 191.25 48" height="64" preserveAspectRatio="xMidYMid meet" version="1.0"><defs><g/><clipPath id="id1"><path d="M 127 1 L 171.855469 1 L 171.855469 45.550781 L 127 45.550781 Z M 127 1 " clip-rule="nonzero"/></clipPath></defs><path fill="#1976d2" d="M 155.703125 13.878906 L 155.703125 24.824219 L 154.09375 24.824219 L 154.09375 16.398438 C 154.09375 15.882812 153.671875 15.464844 153.15625 15.464844 C 152.640625 15.464844 152.222656 15.882812 152.222656 16.398438 L 152.222656 24.824219 L 150.597656 24.824219 L 150.597656 18.527344 C 150.597656 18.011719 150.179688 17.59375 149.664062 17.59375 C 149.148438 17.59375 148.730469 18.011719 148.730469 18.527344 L 148.730469 24.824219 L 147.105469 24.824219 L 147.105469 20.65625 C 147.105469 20.140625 146.6875 19.722656 146.171875 19.722656 C 145.65625 19.722656 145.234375 20.140625 145.234375 20.65625 L 145.234375 24.824219 L 143.625 24.824219 L 143.625 13.878906 C 143.625 10.550781 146.335938 7.839844 149.664062 7.839844 C 152.992188 7.839844 155.703125 10.550781 155.703125 13.878906 Z M 149.664062 34.320312 C 146.335938 34.320312 143.625 31.609375 143.625 28.28125 L 143.625 26.695312 L 155.703125 26.695312 L 155.703125 28.28125 C 155.703125 31.609375 152.992188 34.320312 149.664062 34.320312 Z M 141.757812 13.878906 L 141.757812 28.28125 C 141.757812 32.640625 145.304688 36.1875 149.664062 36.1875 C 154.023438 36.1875 157.570312 32.640625 157.570312 28.28125 L 157.570312 13.878906 C 157.570312 9.519531 154.023438 5.972656 149.664062 5.972656 C 145.304688 5.972656 141.757812 9.519531 141.757812 13.878906 " fill-opacity="1" fill-rule="nonzero"/><g clip-path="url(#id1)"><path fill="#1976d2" d="M 161.984375 4.898438 C 155.660156 0.667969 147.773438 0 140.347656 3.070312 C 137.875 4.09375 135.664062 5.570312 133.769531 7.464844 C 131.875 9.359375 130.398438 11.570312 129.375 14.042969 C 126.308594 21.46875 126.972656 29.355469 131.203125 35.679688 C 135.335938 41.863281 142.238281 45.554688 149.664062 45.554688 C 150.179688 45.554688 150.597656 45.136719 150.597656 44.621094 L 150.597656 40.488281 C 150.597656 40.445312 150.59375 40.40625 150.589844 40.367188 C 151.902344 40.269531 153.183594 39.957031 154.402344 39.441406 C 155.851562 38.828125 157.152344 37.953125 158.265625 36.835938 C 159.382812 35.722656 160.261719 34.421875 160.871094 32.972656 C 161.507812 31.46875 161.832031 29.875 161.832031 28.234375 L 161.832031 26.128906 C 161.832031 25.613281 161.414062 25.195312 160.898438 25.195312 C 160.382812 25.195312 159.964844 25.613281 159.964844 26.128906 L 159.964844 28.234375 C 159.964844 29.621094 159.691406 30.972656 159.152344 32.242188 C 158.632812 33.46875 157.890625 34.570312 156.945312 35.515625 C 156 36.460938 154.902344 37.203125 153.675781 37.722656 C 152.402344 38.261719 151.054688 38.53125 149.664062 38.53125 C 148.273438 38.53125 146.925781 38.261719 145.652344 37.722656 C 144.425781 37.203125 143.328125 36.460938 142.382812 35.515625 C 141.4375 34.570312 140.695312 33.46875 140.175781 32.242188 C 139.636719 30.972656 139.363281 29.621094 139.363281 28.234375 L 139.363281 26.128906 C 139.363281 25.613281 138.945312 25.195312 138.429688 25.195312 C 137.914062 25.195312 137.496094 25.613281 137.496094 26.128906 L 137.496094 28.234375 C 137.496094 29.875 137.820312 31.46875 138.457031 32.972656 C 139.070312 34.421875 139.945312 35.722656 141.0625 36.835938 C 142.175781 37.953125 143.476562 38.828125 144.925781 39.441406 C 146.144531 39.957031 147.425781 40.269531 148.738281 40.367188 C 148.734375 40.40625 148.730469 40.445312 148.730469 40.488281 L 148.730469 43.664062 C 142.285156 43.371094 136.367188 40.046875 132.753906 34.640625 C 128.878906 28.84375 128.273438 21.597656 131.101562 14.757812 C 132.953125 10.277344 136.582031 6.648438 141.0625 4.796875 C 147.902344 1.96875 155.148438 2.570312 160.949219 6.449219 C 166.609375 10.234375 169.992188 16.558594 169.992188 23.359375 C 169.992188 32.988281 163.152344 41.367188 153.730469 43.277344 C 153.222656 43.382812 152.898438 43.875 153 44.378906 C 153.101562 44.886719 153.59375 45.210938 154.101562 45.109375 C 159.042969 44.105469 163.546875 41.402344 166.777344 37.492188 C 168.386719 35.542969 169.644531 33.359375 170.507812 31 C 171.402344 28.554688 171.859375 25.984375 171.859375 23.359375 C 171.859375 15.933594 168.167969 9.03125 161.984375 4.898438 " fill-opacity="1" fill-rule="nonzero"/></g><g fill="#1976d2" fill-opacity="1"><g transform="translate(22.589256, 39.386426)"><g><path d="M 6.183594 0.277344 C 9.675781 0.277344 11.921875 -1.050781 11.90625 -3.007812 C 11.90625 -4.714844 10.542969 -5.578125 7.367188 -5.894531 L 5.621094 -6.09375 C 4.398438 -6.210938 3.875 -6.421875 3.886719 -6.773438 C 3.898438 -7.273438 4.871094 -7.589844 6.222656 -7.601562 C 7.667969 -7.613281 9.214844 -7.195312 10.253906 -6.511719 L 11.199219 -8.496094 C 10.015625 -9.242188 8.152344 -9.6875 6.195312 -9.6875 C 2.808594 -9.6875 0.523438 -8.546875 0.511719 -6.523438 C 0.511719 -4.859375 1.796875 -4.03125 4.792969 -3.714844 L 6.523438 -3.519531 C 7.941406 -3.375 8.546875 -3.113281 8.546875 -2.71875 C 8.546875 -2.207031 7.707031 -1.902344 6.367188 -1.902344 C 4.554688 -1.902344 2.519531 -2.535156 1.40625 -3.402344 L 0.261719 -1.339844 C 1.523438 -0.378906 3.9375 0.277344 6.183594 0.277344 Z M 6.183594 0.277344 "/></g></g></g><g fill="#1976d2" fill-opacity="1"><g transform="translate(34.752645, 39.386426)"><g><path d="M 0.65625 0 L 4.121094 0 L 4.121094 -2.902344 L 8.269531 -2.902344 C 10.9375 -2.902344 12.421875 -4.042969 12.421875 -6.105469 C 12.421875 -8.21875 10.949219 -9.398438 8.296875 -9.398438 L 0.65625 -9.398438 Z M 4.121094 -4.832031 L 4.121094 -7.46875 L 7.128906 -7.46875 C 8.296875 -7.46875 8.941406 -6.996094 8.941406 -6.15625 C 8.941406 -5.304688 8.296875 -4.832031 7.128906 -4.832031 Z M 4.121094 -4.832031 "/></g></g></g><g fill="#1976d2" fill-opacity="1"><g transform="translate(47.414635, 39.386426)"><g><path d="M 0.65625 0 L 10.726562 0 L 10.726562 -2.125 L 4.015625 -2.125 L 4.015625 -3.875 L 10.070312 -3.875 L 10.070312 -5.699219 L 4.015625 -5.699219 L 4.015625 -7.273438 L 10.59375 -7.273438 L 10.59375 -9.398438 L 0.65625 -9.398438 Z M 0.65625 0 "/></g></g></g><g fill="#1976d2" fill-opacity="1"><g transform="translate(58.397106, 39.386426)"><g><path d="M 0.65625 0 L 10.726562 0 L 10.726562 -2.125 L 4.015625 -2.125 L 4.015625 -3.875 L 10.070312 -3.875 L 10.070312 -5.699219 L 4.015625 -5.699219 L 4.015625 -7.273438 L 10.59375 -7.273438 L 10.59375 -9.398438 L 0.65625 -9.398438 Z M 0.65625 0 "/></g></g></g><g fill="#1976d2" fill-opacity="1"><g transform="translate(69.379578, 39.386426)"><g><path d="M 7.285156 0.222656 C 10.765625 0.222656 13.273438 -1.234375 13.773438 -3.542969 L 10.570312 -4.109375 C 10.304688 -2.941406 9.058594 -2.207031 7.378906 -2.207031 C 5.25 -2.207031 3.898438 -3.175781 3.886719 -4.699219 C 3.886719 -6.234375 5.09375 -7.195312 6.984375 -7.195312 C 8.324219 -7.195312 9.386719 -6.578125 9.714844 -5.605469 L 12.867188 -6.25 C 12.234375 -8.324219 9.914062 -9.636719 6.894531 -9.636719 C 2.929688 -9.636719 0.421875 -7.71875 0.421875 -4.699219 C 0.421875 -1.589844 3.085938 0.222656 7.285156 0.222656 Z M 7.285156 0.222656 "/></g></g></g><g fill="#1976d2" fill-opacity="1"><g transform="translate(83.340577, 39.386426)"><g><path d="M 0.65625 0 L 4.121094 0 L 4.121094 -3.742188 L 9.257812 -3.742188 L 9.257812 0 L 12.734375 0 L 12.734375 -9.398438 L 9.257812 -9.398438 L 9.257812 -6.078125 L 4.121094 -6.078125 L 4.121094 -9.398438 L 0.65625 -9.398438 Z M 0.65625 0 "/></g></g></g><g fill="#1976d2" fill-opacity="1"><g transform="translate(96.712978, 39.386426)"><g/></g></g><g fill="#1976d2" fill-opacity="1"><g transform="translate(26.857515, 23.212202)"><g><path d="M 7.683594 0.234375 C 11.351562 0.234375 13.992188 -1.300781 14.519531 -3.738281 L 11.140625 -4.332031 C 10.867188 -3.101562 9.550781 -2.324219 7.777344 -2.324219 C 5.535156 -2.324219 4.109375 -3.351562 4.097656 -4.957031 C 4.097656 -6.574219 5.371094 -7.585938 7.363281 -7.585938 C 8.777344 -7.585938 9.898438 -6.933594 10.242188 -5.910156 L 13.566406 -6.589844 C 12.902344 -8.777344 10.449219 -10.160156 7.265625 -10.160156 C 3.085938 -10.160156 0.441406 -8.140625 0.441406 -4.957031 C 0.441406 -1.675781 3.253906 0.234375 7.683594 0.234375 Z M 7.683594 0.234375 "/></g></g></g><g fill="#1976d2" fill-opacity="1"><g transform="translate(46.020521, 23.212202)"><g><path d="M 0.691406 0 L 4.347656 0 L 4.347656 -3.945312 L 9.757812 -3.945312 L 9.757812 0 L 13.425781 0 L 13.425781 -9.910156 L 9.757812 -9.910156 L 9.757812 -6.410156 L 4.347656 -6.410156 L 4.347656 -9.910156 L 0.691406 -9.910156 Z M 0.691406 0 "/></g></g></g><g fill="#1976d2" fill-opacity="1"><g transform="translate(64.574873, 23.212202)"><g><path d="M 0.691406 0 L 11.308594 0 L 11.308594 -2.242188 L 4.234375 -2.242188 L 4.234375 -4.082031 L 10.617188 -4.082031 L 10.617188 -6.007812 L 4.234375 -6.007812 L 4.234375 -7.667969 L 11.171875 -7.667969 L 11.171875 -9.910156 L 0.691406 -9.910156 Z M 0.691406 0 "/></g></g></g><g fill="#1976d2" fill-opacity="1"><g transform="translate(80.59781, 23.212202)"><g><path d="M 7.683594 0.234375 C 11.351562 0.234375 13.992188 -1.300781 14.519531 -3.738281 L 11.140625 -4.332031 C 10.867188 -3.101562 9.550781 -2.324219 7.777344 -2.324219 C 5.535156 -2.324219 4.109375 -3.351562 4.097656 -4.957031 C 4.097656 -6.574219 5.371094 -7.585938 7.363281 -7.585938 C 8.777344 -7.585938 9.898438 -6.933594 10.242188 -5.910156 L 13.566406 -6.589844 C 12.902344 -8.777344 10.449219 -10.160156 7.265625 -10.160156 C 3.085938 -10.160156 0.441406 -8.140625 0.441406 -4.957031 C 0.441406 -1.675781 3.253906 0.234375 7.683594 0.234375 Z M 7.683594 0.234375 "/></g></g></g><g fill="#1976d2" fill-opacity="1"><g transform="translate(99.760813, 23.212202)"><g><path d="M 0.691406 0 L 4.347656 0 L 4.347656 -2.5625 L 5.828125 -3.804688 L 8.734375 0 L 13.164062 0 L 8.359375 -5.910156 L 13.136719 -9.910156 L 8.566406 -9.910156 L 4.375 -6.367188 L 4.347656 -6.382812 L 4.347656 -9.910156 L 0.691406 -9.910156 Z M 0.691406 0 "/></g></g></g><path stroke-linecap="butt" transform="matrix(0.734694, 0, 0, 0.734694, 18.523594, 27.12373)" fill="none" stroke-linejoin="miter" d="M 110.313593 16.999668 L 115.481562 16.999668 L 116.497079 14.660258 L 123.222882 14.660258 L 124.259666 16.999668 L 129.406367 16.999668 L 122.845386 3.489576 L 117.065981 3.489576 Z M 117.443476 11.884868 L 119.862639 6.530809 L 119.899857 6.530809 L 122.276484 11.884868 Z M 130.363399 16.999668 L 135.324011 16.999668 L 135.324011 3.489576 L 130.363399 3.489576 Z M 130.363399 16.999668 " stroke="#1976d2" stroke-width="1.297883" stroke-opacity="1" stroke-miterlimit="4"/></svg>